<?xml version="1.0" encoding="UTF-8"?>
<svg id="Layer_1" xmlns="http://www.w3.org/2000/svg" version="1.1" viewBox="0 0 321.4 241.18">
  <!-- Generator: Adobe Illustrator 30.6.0, SVG Export Plug-In . SVG Version: 2.1.4 Build 109)  -->
  <defs>
    <style>
      .st0 {
        fill: #2c7195;
      }

      .st1 {
        fill: #27394a;
      }
    </style>
  </defs>
  <path class="st1" d="M50.14,0v7.44h-13.27v38.84h-8.58V7.44h-13.27V0h35.11Z"/>
  <path class="st1" d="M126.28,0v7.38h-23.17v11.65h22.07v7.67h-22.17v12.14h23.72v7.44h-32.14V0h31.68Z"/>
  <path class="st1" d="M185.51,46.28h-8.8L196.35,0h9.22l20.07,46.28h-9.22l-5.28-12.62h-15.37l2.95-7.44h9.32l-7.28-17.38-15.24,37.44Z"/>
  <path class="st1" d="M272.85,46.28V0h8.9l15.7,35.11L312.82,0h8.58v46.28h-7.93V14.05l-12.56,32.23h-7.31l-12.82-32.23v32.23h-7.93Z"/>
  <path class="st1" d="M28.31,71.87v119.88c0,19.97-8.76,32.4-28.2,32.4h-.11v17.02c30.68-.11,46.53-20.08,46.53-48.2v-121.1h-18.22Z"/>
  <path class="st1" d="M174.8,71.17h48.94c35.64.18,62.24,21.28,62.24,60.46s-26.6,60.11-62.24,60.11h-48.94v-120.58ZM193.24,87.31v88.3h29.79c25.71,0,43.98-15.6,43.98-43.98s-18.27-44.15-43.98-44.33h-29.79Z"/>
  <rect class="st1" x="303.17" y="71.88" width="18.22" height="119.16"/>
  <rect class="st0" x="63.73" y="71.17" width="93.87" height="15.55"/>
  <rect class="st0" x="63.73" y="123.68" width="93.87" height="15.55"/>
  <rect class="st0" x="63.73" y="176.19" width="93.87" height="15.55"/>
</svg>